<svg xmlns="http://www.w3.org/2000/svg" width="331" height="57" fill="none" viewBox="0 0 331 57"><g clip-path="url(#a)"><path fill="#FDEEE3" d="M38.15 26.647a13.84 13.84 0 0 0-11.696-6.391c-4.756 0-9.129 2.39-11.695 6.39l-6.186 9.642a8.72 8.72 0 0 0-1.37 5.344 8.72 8.72 0 0 0 2.088 5.107 8.74 8.74 0 0 0 4.725 2.855 8.74 8.74 0 0 0 5.498-.523l.117-.051a17.3 17.3 0 0 1 13.762.051 8.75 8.75 0 0 0 5.496.523 8.73 8.73 0 0 0 4.726-2.855 8.72 8.72 0 0 0 2.09-5.107 8.72 8.72 0 0 0-1.37-5.344zm-27.91-.013c1.84-.706 3.237-2.188 3.936-4.172.664-1.889.61-4.02-.154-6.003-.764-1.982-2.155-3.6-3.915-4.556-1.849-1.004-3.88-1.168-5.717-.46-3.696 1.42-5.392 5.983-3.78 10.175 1.287 3.336 4.29 5.443 7.325 5.443a6.4 6.4 0 0 0 2.304-.427M22.24 19.08c4.621 0 8.38-4.279 8.38-9.539C30.621 4.28 26.862 0 22.241 0s-8.378 4.28-8.378 9.541c0 5.26 3.758 9.54 8.378 9.54m14.472 2.344a6.8 6.8 0 0 0 2.159.348c3.37 0 6.653-2.45 7.906-6.217.722-2.167.674-4.46-.133-6.453-.846-2.088-2.412-3.603-4.412-4.267s-4.162-.387-6.09.78c-1.841 1.113-3.252 2.921-3.973 5.089-1.521 4.573.517 9.382 4.543 10.72M54.36 20.31l-.001-.002c-3.186-2.352-7.952-1.332-10.624 2.274-2.67 3.607-2.252 8.458.93 10.811 1.16.859 2.531 1.27 3.934 1.27 2.446 0 4.99-1.248 6.691-3.541 2.67-3.608 2.252-8.458-.93-10.813"/></g><path fill="#FDEEE3" d="M305.539 26.474q-.513 0-.513-.538v-1.953q0-.512.513-.512h2.541v-5.542q0-.367.098-.733.122-.366.611-.561l13.488-4.98a21 21 0 0 1 1.539-.513 4 4 0 0 1 1.075-.171q.171 0 .367.073a.9.9 0 0 1 .391.195q.195.147.317.415.123.245.123.61v11.207h4.398q.513 0 .513.512v1.953q0 .538-.513.538h-4.398v9.839q0 1.733.562 2.44.586.71 1.783.709.27 0 .562-.049.294-.074.538-.122.269-.074.489-.122a1.2 1.2 0 0 1 .366-.073q.269 0 .269.317v1.88q0 .488-.196.66-.195.17-.342.219-.928.39-2.199.781-1.247.39-2.712.684a28 28 0 0 1-3.054.488q-1.613.195-3.226.195a36 36 0 0 1-4.325-.244q-1.979-.219-3.445-1.05-1.442-.83-2.272-2.466-.807-1.635-.807-4.443v-9.643zm-8.185 12.939q.659 0 1.197-.17.537-.197.953-.416.44-.219.708-.39.293-.195.44-.196.22 0 .293.074a1 1 0 0 1 .22.268l.856 1.318q.122.195.122.342a.36.36 0 0 1-.098.269q-.098.098-.195.17-.807.563-1.98 1.221-1.173.636-2.736 1.172-1.54.537-3.495.88-1.954.365-4.3.365-1.833 0-3.665-.293a18 18 0 0 1-3.519-.927 14 14 0 0 1-3.103-1.66 10.9 10.9 0 0 1-2.517-2.515q-1.05-1.489-1.661-3.443-.611-1.977-.611-4.516 0-2.49.611-4.443.61-1.978 1.661-3.467a10.9 10.9 0 0 1 2.517-2.515q1.441-1.05 3.103-1.685a17 17 0 0 1 3.519-.952 23 23 0 0 1 3.665-.293q3.054 0 5.669.684 2.638.683 4.569 2.246 1.93 1.563 3.03 4.102 1.1 2.538 1.1 6.225v1.367q0 .44-.22.684t-.733.244h-10.116q.195 1.807.684 3.027.513 1.196 1.148 1.93.66.707 1.417 1t1.467.293m2.883-9.253q0-1.953-.318-3.222-.293-1.295-.806-2.051-.513-.781-1.222-1.099a3.4 3.4 0 0 0-1.442-.317q-.561 0-1.221.22-.66.219-1.246.927-.562.708-.978 2.027-.39 1.317-.464 3.515zm-55.467-8.3q0-.83.146-1.465.147-.66.562-1.075t1.149-.634 1.905-.22h9.994q1.1 0 1.882.22.806.219 1.148.756.317-.219.758-.463a8.1 8.1 0 0 1 2.15-.855 5.4 5.4 0 0 1 1.271-.146q2.345 0 3.64 1.61 1.32 1.613 1.32 4.737v17.993q0 .415-.122.66a.8.8 0 0 1-.269.341.8.8 0 0 1-.367.122 4 4 0 0 1-.439.025h-1.564q-.636 0-.831-.366a1.8 1.8 0 0 1-.171-.782V24.081q0-1.392-.513-2.124-.489-.732-1.589-.732-.561 0-1.148.317a3.7 3.7 0 0 0-.904.635v17.87a6.7 6.7 0 0 1-.147 1.49 2.27 2.27 0 0 1-.562 1.074q-.415.416-1.148.635t-1.906.22h-10.483q-1.172 0-1.905-.22t-1.149-.635a2.1 2.1 0 0 1-.562-1.05 6.7 6.7 0 0 1-.146-1.489zm-21.307 21.606q-1.32 0-2.664-.171a16 16 0 0 1-2.541-.537 11.7 11.7 0 0 1-2.248-1.001 7.2 7.2 0 0 1-1.832-1.514 7 7 0 0 1-1.198-2.124q-.44-1.221-.439-2.807 0-2.125.806-3.638a7.5 7.5 0 0 1 2.15-2.515q1.368-1 3.128-1.538a17 17 0 0 1 3.641-.683v-1.685q0-.953-.245-1.514-.244-.56-.635-.83a1.74 1.74 0 0 0-.831-.366 4 4 0 0 0-.855-.098 4.2 4.2 0 0 0-1.051.147q-.537.147-1.05.366-.514.195-.978.44-.464.243-.782.439a7 7 0 0 1-.269.17.47.47 0 0 1-.244.074q-.22 0-.415-.317l-.831-1.319a.6.6 0 0 1-.122-.366.47.47 0 0 1 .146-.342q.171-.146.318-.244.807-.562 2.053-1.147t2.785-1.05a27 27 0 0 1 3.372-.757 23.4 23.4 0 0 1 3.739-.293q1.832 0 3.567.122 1.76.122 3.299.537 1.563.39 2.834 1.148a7.3 7.3 0 0 1 2.224 1.953q.953 1.221 1.466 3.003t.513 4.272V40.17a6.4 6.4 0 0 1-.147 1.44 2.1 2.1 0 0 1-.562 1.026q-.415.415-1.148.634-.733.196-1.906.196zm-1.197-13.428q-1.76 0-2.957.44-1.197.439-1.93 1.171a4.24 4.24 0 0 0-1.051 1.71 6.2 6.2 0 0 0-.318 1.977q0 1.026.318 1.953a3.9 3.9 0 0 0 1.051 1.587q.733.684 1.93 1.074t2.957.39zM190.72 6.87q0-.831.147-1.466.147-.66.562-1.074t1.148-.635 1.906-.22h10.703q1.124 0 1.808.22.684.196 1.075.61.392.415.513 1.05.147.636.147 1.49V40.12q0 .83-.147 1.465a2.4 2.4 0 0 1-.538 1.05q-.39.415-1.099.634-.684.196-1.808.196h-10.654q-1.173 0-1.906-.22t-1.148-.635a2.1 2.1 0 0 1-.562-1.05 6.7 6.7 0 0 1-.147-1.489zm-18.228 11.034q1.808 0 3.592.269 1.783.268 3.421.879 1.637.61 3.03 1.587a10 10 0 0 1 2.419 2.417q1.026 1.44 1.612 3.369.587 1.904.587 4.394 0 3.076-.88 5.323-.879 2.22-2.346 3.735a11.1 11.1 0 0 1-3.396 2.392q-1.93.855-4.056 1.197v6.64q0 .878-.147 1.514a2.23 2.23 0 0 1-.537 1.05q-.367.44-1.076.635-.684.22-1.783.22h-10.703q-1.173 0-1.906-.22t-1.148-.66a2.1 2.1 0 0 1-.562-1.05 6.7 6.7 0 0 1-.147-1.489v-19.53q0-3.028.929-5.396.952-2.37 2.737-3.98 1.808-1.611 4.398-2.441 2.614-.855 5.962-.855m11.191 12.89q0-1.879-.415-3.49-.416-1.612-1.295-2.857a6.9 6.9 0 0 0-2.248-2.026q-1.344-.805-3.25-1.026v18.946q1.906-.244 3.25-1.05a7.05 7.05 0 0 0 2.248-2.075q.88-1.27 1.295-2.906.415-1.635.415-3.515m-54.416-4.321q-.514 0-.514-.538v-1.953q0-.512.514-.512h2.541v-5.542q0-.367.098-.733.122-.366.61-.561l13.488-4.98a21 21 0 0 1 1.54-.513q.61-.171 1.075-.171.171 0 .366.073a.9.9 0 0 1 .391.195q.196.147.318.415.122.245.122.61v11.207h4.398q.514 0 .514.512v1.953q0 .538-.514.538h-4.398v9.839q0 1.733.562 2.44.587.71 1.784.709.268 0 .562-.049.293-.074.537-.122.27-.074.489-.122a1.2 1.2 0 0 1 .367-.073q.268 0 .268.317v1.88q0 .488-.195.66-.195.17-.342.219-.928.39-2.199.781-1.246.39-2.712.684-1.443.317-3.055.488-1.613.195-3.225.195-2.322 0-4.325-.244-1.98-.219-3.445-1.05-1.442-.83-2.273-2.466-.806-1.635-.806-4.443v-9.643zm-8.186 12.939q.66 0 1.197-.17.538-.197.953-.416.44-.219.709-.39.293-.195.44-.196.22 0 .293.074.097.072.22.268l.855 1.318q.123.195.122.342a.36.36 0 0 1-.097.269 2 2 0 0 1-.196.17 25 25 0 0 1-1.979 1.221q-1.173.636-2.737 1.172-1.54.537-3.494.88-1.955.365-4.301.365a23 23 0 0 1-3.665-.293 18 18 0 0 1-3.518-.927 14 14 0 0 1-3.104-1.66 10.8 10.8 0 0 1-2.516-2.515q-1.05-1.489-1.662-3.443-.61-1.977-.61-4.516 0-2.49.61-4.443.61-1.978 1.662-3.467a10.8 10.8 0 0 1 2.516-2.515q1.443-1.05 3.104-1.685a17 17 0 0 1 3.518-.952 23 23 0 0 1 3.665-.293q3.055 0 5.669.684 2.64.683 4.57 2.246t3.03 4.102 1.099 6.225v1.367q0 .44-.22.684t-.733.244h-10.116q.196 1.807.684 3.027.513 1.196 1.149 1.93.66.707 1.417 1 .758.293 1.466.293m2.883-9.253q0-1.953-.317-3.222-.294-1.295-.807-2.051-.513-.781-1.221-1.099a3.4 3.4 0 0 0-1.442-.317q-.562 0-1.222.22-.66.219-1.246.927-.562.708-.977 2.027-.392 1.317-.465 3.515zM68.058 11.825q0-.855.146-1.49.147-.633.562-1.049.415-.44 1.149-.659.733-.22 1.906-.22h10.898q1.686 0 3.347.22 1.662.195 3.177.684 1.538.487 2.834 1.27a8.5 8.5 0 0 1 2.272 1.952q.978 1.147 1.515 2.71.562 1.539.562 3.565 0 3.002-.83 5.078-.807 2.05-2.2 3.393a9.5 9.5 0 0 1-3.25 2.051 18.7 18.7 0 0 1-3.86 1.026v9.155q0 .562-.098 1.245a3.2 3.2 0 0 1-.489 1.294q-.39.585-1.197 1-.806.416-2.223.416H71.82q-1.174 0-1.906-.22-.734-.22-1.149-.635a2.1 2.1 0 0 1-.562-1.05 6.7 6.7 0 0 1-.146-1.489zm24.923 7.349q0-1.465-.39-2.686a6 6 0 0 0-1.198-2.173q-.807-.927-2.077-1.538-1.27-.61-3.03-.83v15.161q1.76-.268 3.03-.976 1.271-.708 2.077-1.758t1.197-2.368q.39-1.343.391-2.832"/><defs><clipPath id="a"><path fill="#fff" d="M0 0h57.048v57H0z"/></clipPath></defs></svg>