<svg xmlns="http://www.w3.org/2000/svg" width="306" height="307" fill="none" viewBox="0 0 306 307"><path fill="#008234" d="m306 153.519-53.732 26.71 33.232 50.049-59.855-3.858 3.883 60.051-49.923-33.341L152.981 307l-26.623-53.87-49.886 33.341 3.846-60.051-59.856 3.858 33.233-50.049L0 153.519l53.695-26.711-33.233-50.086 59.856 3.859-3.846-60.014 49.886 33.303L152.981 0l26.624 53.87 49.923-33.303-3.883 60.014 59.855-3.86-33.232 50.087z"/><path fill="#FDEEE3" d="M133.609 142v-26.988h-7.228v-5.616q2.132-.052 3.848-.364 1.716-.364 3.068-1.248 1.352-.936 2.34-2.6h5.408V142zm29.466.416q-4.056 0-6.864-1.456t-4.576-4.004q-1.768-2.6-2.548-5.98-.78-3.432-.78-7.28 0-3.952.78-7.384.831-3.432 2.6-6.032a12.7 12.7 0 0 1 4.628-4.056q2.859-1.456 6.864-1.456 4.16 0 6.968 1.508a11.9 11.9 0 0 1 4.576 4.212q1.767 2.652 2.496 6.032.78 3.38.78 7.072 0 3.796-.78 7.176t-2.496 6.032q-1.716 2.6-4.576 4.108t-7.072 1.508m0-6.864q2.547 0 4.004-1.144 1.507-1.196 2.236-3.068.78-1.872.988-3.9.26-2.08.26-3.848 0-1.664-.26-3.692a14.3 14.3 0 0 0-.936-3.9q-.729-1.872-2.184-3.068t-3.952-1.196q-2.496 0-4.004 1.196-1.508 1.144-2.288 3.016a16.5 16.5 0 0 0-.988 3.9 30 30 0 0 0-.26 3.744q0 1.716.208 3.796.26 2.08.988 3.952.727 1.872 2.184 3.068 1.508 1.144 4.004 1.144M93.8 183v-12.648h2.735l4.104 6.336 4.032-6.336h2.688V183h-2.016v-10.392l-4.464 7.152h-.576l-4.488-7.152V183zm20.837.144a6.5 6.5 0 0 1-1.68-.216 5 5 0 0 1-1.44-.696 3.8 3.8 0 0 1-1.008-1.176q-.36-.72-.36-1.656 0-1.08.384-1.824a3.2 3.2 0 0 1 1.08-1.176 4.7 4.7 0 0 1 1.56-.624 8.7 8.7 0 0 1 1.848-.192h3.72q0-1.08-.312-1.872a2.37 2.37 0 0 0-.96-1.224q-.672-.456-1.776-.456-.672 0-1.248.144a2.7 2.7 0 0 0-.984.456 1.8 1.8 0 0 0-.6.84h-2.184q.168-.864.648-1.464a4 4 0 0 1 1.2-1.008q.72-.408 1.536-.6a7 7 0 0 1 1.632-.192q1.824 0 2.928.744 1.104.72 1.608 2.064.504 1.32.504 3.144V183h-1.704l-.12-1.608q-.528.72-1.272 1.104a5 5 0 0 1-1.536.504q-.768.144-1.464.144m.192-1.8q1.2 0 2.064-.384.888-.408 1.368-1.176t.48-1.872v-.624h-2.232q-.792 0-1.56.024a6 6 0 0 0-1.392.192q-.624.168-1.008.576-.36.408-.36 1.176 0 .72.36 1.176.384.456.984.696.624.216 1.296.216m9.064 1.656v-12.648h8.736v1.8h-6.696V183zm14.603.144a6.5 6.5 0 0 1-1.68-.216 5 5 0 0 1-1.44-.696 3.8 3.8 0 0 1-1.008-1.176q-.36-.72-.36-1.656 0-1.08.384-1.824a3.2 3.2 0 0 1 1.08-1.176 4.7 4.7 0 0 1 1.56-.624 8.7 8.7 0 0 1 1.848-.192h3.72q0-1.08-.312-1.872a2.37 2.37 0 0 0-.96-1.224q-.672-.456-1.776-.456-.672 0-1.248.144a2.7 2.7 0 0 0-.984.456 1.8 1.8 0 0 0-.6.84h-2.184q.168-.864.648-1.464a4 4 0 0 1 1.2-1.008q.72-.408 1.536-.6a7 7 0 0 1 1.632-.192q1.824 0 2.928.744 1.104.72 1.608 2.064.504 1.32.504 3.144V183h-1.704l-.12-1.608q-.528.72-1.272 1.104a5 5 0 0 1-1.536.504q-.768.144-1.464.144m.192-1.8q1.2 0 2.064-.384.888-.408 1.368-1.176t.48-1.872v-.624h-2.232q-.792 0-1.56.024a6 6 0 0 0-1.392.192q-.624.168-1.008.576-.36.408-.36 1.176 0 .72.36 1.176.384.456.984.696.624.216 1.296.216m13.649 1.8q-.912 0-1.824-.168a6.7 6.7 0 0 1-1.704-.552 3.56 3.56 0 0 1-1.248-1.08q-.48-.696-.528-1.728h1.992q.12.648.696 1.032t1.296.552q.744.144 1.32.144a6.7 6.7 0 0 0 1.368-.144q.72-.144 1.2-.576.504-.432.504-1.272 0-.816-.408-1.2-.384-.384-1.032-.504a7.3 7.3 0 0 0-1.368-.12h-2.256v-1.8h1.848q.456 0 .936-.072.48-.096.888-.288.408-.216.648-.6.264-.384.264-.984 0-.672-.384-1.056a2.03 2.03 0 0 0-.984-.528 4.5 4.5 0 0 0-1.224-.168q-.576 0-1.224.12-.624.12-1.08.48-.456.336-.552 1.008h-2.016q.048-1.296.792-2.04t1.848-1.056a7.6 7.6 0 0 1 2.208-.336q.84 0 1.656.168t1.488.576q.672.384 1.056 1.032.408.648.408 1.608a2.9 2.9 0 0 1-.408 1.536q-.408.672-1.248 1.08 1.224.384 1.704 1.2t.48 1.944q0 1.008-.432 1.728a3.75 3.75 0 0 1-1.176 1.176 5.3 5.3 0 0 1-1.632.672 8 8 0 0 1-1.872.216m7.744-.144v-12.648h2.04v9.696a5 5 0 0 1 .456-.72q.288-.408.456-.624l6.12-8.352h2.016V183h-2.04v-9.696q-.192.36-.432.672-.216.312-.408.576L162.073 183zm14.297 0v-12.648h2.04v5.544h6.336v-5.544h2.04V183h-2.04v-5.304h-6.336V183zm19.16.144q-1.992 0-3.336-.816a5.23 5.23 0 0 1-2.016-2.304q-.648-1.464-.648-3.336 0-1.896.648-3.336a5.23 5.23 0 0 1 2.016-2.304q1.344-.84 3.384-.84 1.992 0 3.312.84a5.1 5.1 0 0 1 1.992 2.304q.672 1.44.672 3.336 0 1.872-.672 3.336a5.23 5.23 0 0 1-2.016 2.304q-1.32.816-3.336.816m0-1.8q1.392 0 2.256-.624a3.6 3.6 0 0 0 1.296-1.68q.432-1.056.432-2.352t-.432-2.352a3.6 3.6 0 0 0-1.296-1.68q-.864-.624-2.256-.624-1.368 0-2.256.624-.864.624-1.296 1.68-.408 1.056-.408 2.352t.408 2.352q.432 1.056 1.296 1.68.888.624 2.256.624m8.754 1.656v-12.648h4.896q.84 0 1.656.12.84.096 1.512.432.696.312 1.104.936.432.624.432 1.656 0 .624-.192 1.152-.192.504-.576.888-.36.384-.936.672 1.296.288 1.872 1.128t.576 1.92q0 .96-.36 1.68a3.05 3.05 0 0 1-.96 1.152q-.6.456-1.416.696a6.5 6.5 0 0 1-1.704.216zm2.088-1.776h3.336q.744 0 1.392-.144t1.056-.528q.408-.408.408-1.152 0-.768-.36-1.152a1.66 1.66 0 0 0-.888-.552 4.3 4.3 0 0 0-1.152-.192 31 31 0 0 0-1.176-.024h-2.616zm0-5.472h1.752q.48 0 1.104-.048a6.4 6.4 0 0 0 1.248-.216q.624-.192 1.008-.576.408-.384.408-1.056 0-.888-.504-1.224a2.13 2.13 0 0 0-1.152-.408 12 12 0 0 0-1.248-.072h-2.616zM118.573 212v-12.648h4.896q.84 0 1.656.12.84.096 1.512.432.696.312 1.104.936.432.624.432 1.656 0 .624-.192 1.152-.192.504-.576.888-.36.384-.936.672 1.296.288 1.872 1.128t.576 1.92q0 .96-.36 1.68a3.05 3.05 0 0 1-.96 1.152q-.6.456-1.416.696a6.5 6.5 0 0 1-1.704.216zm2.088-1.776h3.336q.744 0 1.392-.144t1.056-.528q.408-.408.408-1.152 0-.768-.36-1.152a1.66 1.66 0 0 0-.888-.552 4.3 4.3 0 0 0-1.152-.192 31 31 0 0 0-1.176-.024h-2.616zm0-5.472h1.752q.48 0 1.104-.048a6.4 6.4 0 0 0 1.248-.216q.624-.192 1.008-.576.408-.384.408-1.056 0-.888-.504-1.224a2.13 2.13 0 0 0-1.152-.408 12 12 0 0 0-1.248-.072h-2.616zm22.906 7.392q-1.992 0-3.312-.816-1.296-.84-1.944-2.304-.624-1.464-.624-3.312 0-1.8.648-3.264a5.35 5.35 0 0 1 2.016-2.352q1.368-.888 3.456-.888 1.296 0 2.304.432a4.24 4.24 0 0 1 1.704 1.272q.672.816.936 2.064h-2.088q-.36-1.056-1.152-1.488-.768-.456-1.824-.456-1.44 0-2.304.672t-1.272 1.752a6.6 6.6 0 0 0-.384 2.256q0 1.248.408 2.304a3.8 3.8 0 0 0 1.272 1.704q.864.624 2.232.624 1.008 0 1.896-.432.912-.432 1.2-1.536h2.112q-.24 1.296-1.032 2.136a4.7 4.7 0 0 1-1.896 1.248 7.1 7.1 0 0 1-2.352.384m13.337 0q-2.016 0-3.336-.816a5.13 5.13 0 0 1-1.968-2.304q-.648-1.464-.648-3.336 0-1.896.672-3.336a5.43 5.43 0 0 1 2.016-2.304q1.32-.84 3.24-.84 1.416 0 2.472.552 1.08.528 1.776 1.44a5.7 5.7 0 0 1 1.032 2.04q.336 1.128.288 2.328a4 4 0 0 0-.024.432q0 .216-.024.432h-9.384q.096 1.104.552 1.992a3.57 3.57 0 0 0 1.296 1.416q.84.504 2.088.504.624 0 1.248-.144a3.2 3.2 0 0 0 1.152-.552q.528-.384.744-1.032h2.088q-.288 1.224-1.08 2.016a5.1 5.1 0 0 1-1.896 1.152q-1.104.36-2.304.36m-3.84-7.488h7.32q-.024-1.08-.48-1.896a3.3 3.3 0 0 0-1.248-1.272q-.768-.456-1.848-.456-1.176 0-1.992.504a3.46 3.46 0 0 0-1.224 1.32 4.8 4.8 0 0 0-.528 1.8M168.142 212v-10.848h-4.344v-1.8h10.728v1.8h-4.344V212zm8.204 0v-12.648h2.04v9.696a5 5 0 0 1 .456-.72q.288-.408.456-.624l6.12-8.352h2.016V212h-2.04v-9.696q-.192.36-.432.672-.216.312-.408.576L178.338 212z"/></svg>